# xmcd CD database file
#
# Track frame offsets:
#	150
#	15889
#	32904
#	53013
#	69971
#	89267
#	105386
#	122888
#	139652
#	167961
#	184016
#
# Disc length: 2903 seconds
#
# Revision: 0
# Processed by: cddbd v1.5.1PL0 Copyright (c) Steve Scherf et al.
# Submitted via: CDex 1.51
#
DISCID=860b550b
DTITLE=Grooving Spirit - For You
DYEAR=2002
DGENRE=New Age
TTITLE0=move to the groove (the funtrain)
TTITLE1=connected
TTITLE2=imagination
TTITLE3=vision
TTITLE4=the grooving om shanti
TTITLE5=sorry
TTITLE6=no problems
TTITLE7=for you (I will never leave you allone)
TTITLE8=I wanna know what love it is
TTITLE9=all I've ever felt is love
TTITLE10=genesis
EXTD=YEAR: 2002
EXTT0=
EXTT1=
EXTT2=
EXTT3=
EXTT4=
EXTT5=
EXTT6=
EXTT7=
EXTT8=
EXTT9=
EXTT10=
PLAYORDER=
